<svg width="760" height="760" viewBox="0 0 760 760" fill="none" xmlns="http://www.w3.org/2000/svg">
  <path
    stroke="black" stroke-linecap="round" stroke-linejoin="round"
    d="M380.5 0.847229C325.39 16.2704 274.623 45.6431 233.439 86.7952C170.392 149.795 134.973 235.241 134.973 324.336C134.973 379.394 156.861 432.198 195.822 471.131C234.784 510.063 287.628 531.935 342.728 531.935C376.79 531.935 409.457 518.414 433.542 494.346C457.628 470.279 471.159 437.637 471.159 403.601C471.159 382.579 462.801 362.418 447.925 347.553C433.048 332.688 412.872 324.337 391.834 324.337C385.385 324.337 379 325.605 373.042 328.071C367.084 330.537 361.671 334.152 357.111 338.708C352.551 343.264 348.934 348.674 346.466 354.627C343.999 360.58 342.729 366.961 342.729 373.405C342.729 377.37 343.51 381.296 345.028 384.96C346.547 388.623 348.773 391.952 351.579 394.756C354.385 397.56 357.716 399.784 361.382 401.301C365.049 402.819 368.978 403.6 372.947 403.6C375.427 403.6 377.883 403.112 380.175 402.164C382.466 401.215 384.548 399.825 386.302 398.073C388.056 396.32 389.447 394.24 390.396 391.95C391.345 389.661 391.833 387.207 391.833 384.728C391.833 381.725 390.639 378.846 388.514 376.722C386.389 374.599 383.507 373.406 380.501 373.406C378.498 373.406 376.577 374.2 375.16 375.616C373.744 377.032 372.948 378.952 372.948 380.954C372.948 381.449 373.045 381.941 373.235 382.398C373.425 382.856 373.703 383.272 374.053 383.623C374.404 383.973 374.821 384.251 375.279 384.441C375.737 384.631 376.228 384.728 376.724 384.728M380.495 380.948C380.495 381.443 380.397 381.934 380.207 382.392C380.017 382.85 379.739 383.266 379.388 383.616C379.038 383.967 378.621 384.245 378.163 384.435C377.705 384.624 377.214 384.722 376.718 384.722"
  />
</svg>
