<svg viewBox="0 0 186 269" fill="white" xmlns="http://www.w3.org/2000/svg">
  <path d="M32.8463 219.105C32.8463 221.338 32.4517 223.423 31.6626 225.358C30.8735 227.293 29.7392 229.005 28.2596 230.494C26.8294 231.933 25.0539 233.074 22.9332 233.918C20.8618 234.712 18.5192 235.109 15.9053 235.109H6.36212V253.644H0V203.474H16.3492C18.9631 203.474 21.281 203.895 23.3031 204.739C25.3745 205.533 27.1006 206.65 28.4816 208.089C29.9118 209.478 30.9968 211.116 31.7366 213.001C32.4764 214.887 32.8463 216.922 32.8463 219.105ZM26.4842 219.105C26.4842 216.128 25.6211 213.771 23.8949 212.034C22.1688 210.297 19.6535 209.428 16.3492 209.428H6.36212V229.154H15.9053C19.2096 229.154 21.7989 228.261 23.673 226.474C25.5471 224.688 26.4842 222.232 26.4842 219.105Z" />
  <path d="M43.7858 235.63C43.7858 237.565 43.9831 239.377 44.3776 241.064C44.8215 242.751 45.4626 244.215 46.301 245.456C47.1888 246.647 48.2984 247.59 49.6301 248.284C51.011 248.979 52.6385 249.326 54.5126 249.326C56.3867 249.326 57.9896 248.979 59.3212 248.284C60.7021 247.59 61.8118 246.647 62.6502 245.456C63.5379 244.215 64.1791 242.751 64.5736 241.064C65.0175 239.377 65.2394 237.565 65.2394 235.63C65.2394 233.695 65.0175 231.908 64.5736 230.271C64.1791 228.583 63.5379 227.144 62.6502 225.953C61.8118 224.713 60.7021 223.745 59.3212 223.05C57.9896 222.356 56.3867 222.008 54.5126 222.008C52.6385 222.008 51.011 222.356 49.6301 223.05C48.2984 223.745 47.1888 224.713 46.301 225.953C45.4626 227.144 44.8215 228.583 44.3776 230.271C43.9831 231.908 43.7858 233.695 43.7858 235.63ZM37.6456 235.63C37.6456 233 37.9662 230.544 38.6073 228.261C39.2978 225.978 40.3335 224.018 41.7144 222.38C43.0953 220.693 44.8461 219.378 46.9668 218.435C49.0875 217.443 51.6028 216.947 54.5126 216.947C57.4224 216.947 59.9377 217.443 62.0584 218.435C64.1791 219.378 65.9299 220.693 67.3108 222.38C68.6917 224.018 69.7028 225.978 70.3439 228.261C71.0344 230.544 71.3796 233 71.3796 235.63C71.3796 238.26 71.0344 240.717 70.3439 242.999C69.7028 245.282 68.6917 247.267 67.3108 248.954C65.9299 250.641 64.1791 251.981 62.0584 252.974C59.9377 253.917 57.4224 254.388 54.5126 254.388C51.6028 254.388 49.0875 253.917 46.9668 252.974C44.8461 251.981 43.0953 250.641 41.7144 248.954C40.3335 247.267 39.2978 245.282 38.6073 242.999C37.9662 240.717 37.6456 238.26 37.6456 235.63Z" />
  <path d="M109.87 252.775H102.546C99.8334 249.252 97.3921 246.101 95.2221 243.322C94.2851 242.131 93.3727 240.965 92.4849 239.823C91.5101 238.57 92.5674 239.948 90.8372 237.777C89.107 235.605 85.6748 235.587 84.3699 235.605V229.86C84.3699 229.86 89.5395 229.961 90.8372 228.224L101.732 216.823H109.13L94.1864 232.678L109.87 252.775ZM85.2351 252.775H79.0209V202.605H85.2351V252.775Z" />
  <path d="M119.787 235.63C119.787 237.565 119.984 239.377 120.379 241.064C120.822 242.751 121.464 244.215 122.302 245.456C123.19 246.647 124.299 247.59 125.631 248.284C127.012 248.979 128.639 249.326 130.514 249.326C132.388 249.326 133.991 248.979 135.322 248.284C136.703 247.59 137.813 246.647 138.651 245.456C139.539 244.215 140.18 242.751 140.575 241.064C141.018 239.377 141.24 237.565 141.24 235.63C141.24 233.695 141.018 231.908 140.575 230.271C140.18 228.583 139.539 227.144 138.651 225.953C137.813 224.713 136.703 223.745 135.322 223.05C133.991 222.356 132.388 222.008 130.514 222.008C128.639 222.008 127.012 222.356 125.631 223.05C124.299 223.745 123.19 224.713 122.302 225.953C121.464 227.144 120.822 228.583 120.379 230.271C119.984 231.908 119.787 233.695 119.787 235.63ZM113.647 235.63C113.647 233 113.967 230.544 114.608 228.261C115.299 225.978 116.334 224.018 117.715 222.38C119.096 220.693 120.847 219.378 122.968 218.435C125.088 217.443 127.604 216.947 130.514 216.947C133.423 216.947 135.939 217.443 138.059 218.435C140.18 219.378 141.931 220.693 143.312 222.38C144.693 224.018 145.704 225.978 146.345 228.261C147.035 230.544 147.381 233 147.381 235.63C147.381 238.26 147.035 240.717 146.345 242.999C145.704 245.282 144.693 247.267 143.312 248.954C141.931 250.641 140.18 251.981 138.059 252.974C135.939 253.917 133.423 254.388 130.514 254.388C127.604 254.388 125.088 253.917 122.968 252.974C120.847 251.981 119.096 250.641 117.715 248.954C116.334 247.267 115.299 245.282 114.608 242.999C113.967 240.717 113.647 238.26 113.647 235.63Z" />
  <path d="M179.786 246.796C179.342 247.54 178.75 248.334 178.01 249.177C177.271 249.971 176.383 250.716 175.347 251.411C174.361 252.056 173.202 252.602 171.87 253.048C170.539 253.445 169.034 253.644 167.358 253.644C165.631 253.644 164.053 253.396 162.623 252.899C161.242 252.353 160.058 251.51 159.072 250.368C158.086 249.177 157.297 247.689 156.705 245.902C156.162 244.066 155.891 241.883 155.891 239.352V217.691H161.957V239.352C161.957 242.131 162.549 244.289 163.733 245.828C164.916 247.366 166.494 248.135 168.467 248.135C171.13 248.135 173.374 247.441 175.199 246.051C177.024 244.662 178.553 243.049 179.786 241.213V217.691H186V250.592C186 256.696 184.52 261.211 181.561 264.139C178.652 267.117 174.583 268.605 169.355 268.605C167.086 268.605 164.842 268.283 162.623 267.638C160.404 266.993 158.603 266.223 157.223 265.33L158.776 260.343C160.206 261.187 161.76 261.832 163.437 262.278C165.163 262.775 166.988 263.023 168.911 263.023C170.637 263.023 172.166 262.824 173.498 262.427C174.879 262.03 176.013 261.335 176.901 260.343C177.838 259.4 178.553 258.11 179.046 256.472C179.539 254.884 179.786 252.899 179.786 250.517V246.796Z" />
  <path d="M106.301 3.63469C107.792 3.28415 109.284 4.2081 109.635 5.6984C109.985 7.1887 109.061 8.68101 107.571 9.03156C82.9316 14.8273 61.6039 30.1735 48.2796 51.6944C34.9552 73.2153 30.7257 99.1479 36.5214 123.787C40.0085 138.612 49.2417 151.444 62.1899 159.461C75.1381 167.478 90.7406 170.023 105.565 166.536C107.055 166.185 108.548 167.109 108.898 168.599C109.249 170.09 108.325 171.582 106.834 171.932C90.5787 175.756 73.4698 172.966 59.2714 164.175C45.0731 155.384 34.9484 141.313 31.1246 125.057C24.9922 98.986 29.4674 71.547 43.5658 48.7759C57.6642 26.0049 80.2309 9.76707 106.301 3.63469Z" />
  <path fill-rule="evenodd" clip-rule="evenodd" d="M134.048 121.595C132.557 121.946 131.634 123.438 131.985 124.928C133.036 129.393 133.185 134.023 132.423 138.546C131.662 143.069 130.005 147.394 127.549 151.269C125.094 155.143 121.89 158.488 118.124 161.107C114.359 163.726 110.109 165.568 105.623 166.523C104.125 166.841 103.17 168.314 103.488 169.811C103.807 171.309 105.28 172.264 106.777 171.945C111.985 170.837 116.919 168.699 121.29 165.658C125.662 162.617 129.382 158.734 132.232 154.237C135.083 149.739 137.006 144.717 137.891 139.466C138.775 134.216 138.602 128.841 137.381 123.658C137.03 122.168 135.538 121.244 134.048 121.595Z" />
  <path fill-rule="evenodd" clip-rule="evenodd" d="M115.81 104.036C112.386 103.567 108.902 103.793 105.567 104.7C104.09 105.102 103.218 106.625 103.62 108.103C104.021 109.58 105.545 110.452 107.022 110.05C109.639 109.339 112.372 109.161 115.059 109.529C117.746 109.896 120.331 110.801 122.661 112.19C124.99 113.578 127.016 115.421 128.618 117.609C130.22 119.798 131.365 122.286 131.984 124.926C132.334 126.417 133.826 127.342 135.316 126.992C136.807 126.642 137.731 125.151 137.382 123.66C136.592 120.295 135.133 117.124 133.092 114.335C131.05 111.546 128.468 109.196 125.499 107.427C122.53 105.658 119.235 104.504 115.81 104.036Z" />
  <path fill-rule="evenodd" clip-rule="evenodd" d="M108.993 106.74C108.642 105.25 107.15 104.326 105.66 104.677C101.264 105.711 97.4582 108.449 95.0809 112.289C92.7035 116.129 91.9488 120.756 92.9829 125.152C93.3335 126.642 94.8258 127.566 96.3161 127.216C97.8064 126.865 98.7303 125.373 98.3798 123.882C97.6823 120.917 98.1913 117.797 99.7946 115.207C101.398 112.618 103.964 110.771 106.929 110.074C108.42 109.723 109.344 108.231 108.993 106.74Z" />
  <path fill-rule="evenodd" clip-rule="evenodd" d="M95.0578 121.816C93.5661 122.16 92.636 123.649 92.9803 125.141C93.3403 126.7 94.0221 128.167 94.982 129.447C95.942 130.727 97.1589 131.793 98.5547 132.575C99.9505 133.358 101.494 133.84 103.087 133.991C104.68 134.141 106.287 133.958 107.805 133.451C109.258 132.967 110.042 131.397 109.557 129.944C109.073 128.492 107.503 127.708 106.05 128.192C105.265 128.454 104.434 128.549 103.61 128.471C102.786 128.393 101.988 128.144 101.266 127.739C100.544 127.334 99.9142 126.783 99.4177 126.121C98.9212 125.459 98.5685 124.7 98.3824 123.894C98.038 122.402 96.5495 121.472 95.0578 121.816Z" />
  <path fill-rule="evenodd" clip-rule="evenodd" d="M109.622 121.645C108.135 122.011 107.227 123.512 107.593 124.999C107.753 125.651 107.671 126.339 107.363 126.936C107.054 127.532 106.539 127.996 105.914 128.242C104.489 128.801 103.788 130.41 104.348 131.835C104.908 133.26 106.517 133.962 107.941 133.402C109.816 132.665 111.36 131.273 112.286 129.484C113.212 127.695 113.457 125.631 112.976 123.674C112.61 122.188 111.109 121.279 109.622 121.645Z" />
  <path fill-rule="evenodd" clip-rule="evenodd" d="M110.327 120.012C108.988 119.182 107.374 118.919 105.84 119.28C104.35 119.63 103.426 121.123 103.777 122.613C104.127 124.103 105.619 125.027 107.11 124.677C107.212 124.653 107.32 124.67 107.409 124.725C107.498 124.781 107.562 124.869 107.586 124.971C107.936 126.462 109.429 127.386 110.919 127.035C112.409 126.685 113.333 125.192 112.983 123.702C112.622 122.168 111.667 120.841 110.327 120.012Z" />
  <path fill-rule="evenodd" clip-rule="evenodd" d="M108.81 120.484C107.985 119.195 106.271 118.818 104.981 119.643C104.041 120.245 103.322 121.135 102.932 122.181C102.542 123.226 102.502 124.37 102.819 125.44C103.253 126.908 104.796 127.746 106.264 127.312C107.639 126.905 108.461 125.526 108.203 124.146C109.301 123.273 109.583 121.692 108.81 120.484Z" />
  <path fill-rule="evenodd" clip-rule="evenodd" d="M103.788 122.456C102.574 123.388 102.346 125.129 103.279 126.343C103.925 127.184 104.856 127.761 105.898 127.964C107.4 128.258 108.856 127.278 109.15 125.775C109.415 124.418 108.642 123.099 107.383 122.64C106.41 121.718 104.885 121.613 103.788 122.456Z" />
  <path fill-rule="evenodd" clip-rule="evenodd" d="M104.416 123.338C104.726 122.493 105.442 121.814 106.384 121.593C107.875 121.242 109.367 122.166 109.717 123.656C109.934 124.577 109.776 125.545 109.278 126.349C108.781 127.152 107.984 127.725 107.064 127.942C105.574 128.292 104.082 127.369 103.731 125.878C103.509 124.936 103.797 123.993 104.416 123.338Z" />
  <path d="M106.301 3.63469C107.792 3.28415 109.284 4.2081 109.635 5.6984C109.985 7.1887 109.061 8.68101 107.571 9.03156C82.9316 14.8273 61.6039 30.1735 48.2796 51.6944C34.9552 73.2153 30.7257 99.1479 36.5214 123.787C40.0085 138.612 49.2417 151.444 62.1899 159.461C75.1381 167.478 90.7406 170.023 105.565 166.536C107.055 166.185 108.548 167.109 108.898 168.599C109.249 170.09 108.325 171.582 106.834 171.932C90.5787 175.756 73.4698 172.966 59.2714 164.175C45.0731 155.384 34.9484 141.313 31.1246 125.057C24.9922 98.986 29.4674 71.547 43.5658 48.7759C57.6642 26.0049 80.2309 9.76707 106.301 3.63469Z" stroke="currentColor" stroke-width="7" stroke-linecap="round" stroke-linejoin="round"/>
  <path fill-rule="evenodd" clip-rule="evenodd" d="M134.048 121.595C132.557 121.946 131.634 123.438 131.985 124.928C133.036 129.393 133.185 134.023 132.423 138.546C131.662 143.069 130.005 147.394 127.549 151.269C125.094 155.143 121.89 158.488 118.124 161.107C114.359 163.726 110.109 165.568 105.623 166.523C104.125 166.841 103.17 168.314 103.488 169.811C103.807 171.309 105.28 172.264 106.777 171.945C111.985 170.837 116.919 168.699 121.29 165.658C125.662 162.617 129.382 158.734 132.232 154.237C135.083 149.739 137.006 144.717 137.891 139.466C138.775 134.216 138.602 128.841 137.381 123.658C137.03 122.168 135.538 121.244 134.048 121.595Z" stroke="currentColor" stroke-width="7" stroke-linecap="round" stroke-linejoin="round"/>
  <path fill-rule="evenodd" clip-rule="evenodd" d="M115.81 104.036C112.386 103.567 108.902 103.793 105.567 104.7C104.09 105.102 103.218 106.625 103.62 108.103C104.021 109.58 105.545 110.452 107.022 110.05C109.639 109.339 112.372 109.161 115.059 109.529C117.746 109.896 120.331 110.801 122.661 112.19C124.99 113.578 127.016 115.421 128.618 117.609C130.22 119.798 131.365 122.286 131.984 124.926C132.334 126.417 133.826 127.342 135.316 126.992C136.807 126.642 137.731 125.151 137.382 123.66C136.592 120.295 135.133 117.124 133.092 114.335C131.05 111.546 128.468 109.196 125.499 107.427C122.53 105.658 119.235 104.504 115.81 104.036Z" stroke="currentColor" stroke-width="7" stroke-linecap="round" stroke-linejoin="round"/>
  <path fill-rule="evenodd" clip-rule="evenodd" d="M108.993 106.74C108.642 105.25 107.15 104.326 105.66 104.677C101.264 105.711 97.4582 108.449 95.0809 112.289C92.7035 116.129 91.9488 120.756 92.9829 125.152C93.3335 126.642 94.8258 127.566 96.3161 127.216C97.8064 126.865 98.7303 125.373 98.3798 123.882C97.6823 120.917 98.1913 117.797 99.7946 115.207C101.398 112.618 103.964 110.771 106.929 110.074C108.42 109.723 109.344 108.231 108.993 106.74Z" stroke="currentColor" stroke-width="7" stroke-linecap="round" stroke-linejoin="round"/>
  <path fill-rule="evenodd" clip-rule="evenodd" d="M95.0578 121.816C93.5661 122.16 92.636 123.649 92.9803 125.141C93.3403 126.7 94.0221 128.167 94.982 129.447C95.942 130.727 97.1589 131.793 98.5547 132.575C99.9505 133.358 101.494 133.84 103.087 133.991C104.68 134.141 106.287 133.958 107.805 133.451C109.258 132.967 110.042 131.397 109.557 129.944C109.073 128.492 107.503 127.708 106.05 128.192C105.265 128.454 104.434 128.549 103.61 128.471C102.786 128.393 101.988 128.144 101.266 127.739C100.544 127.334 99.9142 126.783 99.4177 126.121C98.9212 125.459 98.5685 124.7 98.3824 123.894C98.038 122.402 96.5495 121.472 95.0578 121.816Z" stroke="currentColor" stroke-width="7" stroke-linecap="round" stroke-linejoin="round"/>
  <path fill-rule="evenodd" clip-rule="evenodd" d="M109.622 121.645C108.135 122.011 107.227 123.512 107.593 124.999C107.753 125.651 107.671 126.339 107.363 126.936C107.054 127.532 106.539 127.996 105.914 128.242C104.489 128.801 103.788 130.41 104.348 131.835C104.908 133.26 106.517 133.962 107.941 133.402C109.816 132.665 111.36 131.273 112.286 129.484C113.212 127.695 113.457 125.631 112.976 123.674C112.61 122.188 111.109 121.279 109.622 121.645Z" stroke="currentColor" stroke-width="7" stroke-linecap="round" stroke-linejoin="round"/>
  <path fill-rule="evenodd" clip-rule="evenodd" d="M110.327 120.012C108.988 119.182 107.374 118.919 105.84 119.28C104.35 119.63 103.426 121.123 103.777 122.613C104.127 124.103 105.619 125.027 107.11 124.677C107.212 124.653 107.32 124.67 107.409 124.725C107.498 124.781 107.562 124.869 107.586 124.971C107.936 126.462 109.429 127.386 110.919 127.035C112.409 126.685 113.333 125.192 112.983 123.702C112.622 122.168 111.667 120.841 110.327 120.012Z" stroke="currentColor" stroke-width="7" stroke-linecap="round" stroke-linejoin="round"/>
  <path fill-rule="evenodd" clip-rule="evenodd" d="M108.81 120.484C107.985 119.195 106.271 118.818 104.981 119.643C104.041 120.245 103.322 121.135 102.932 122.181C102.542 123.226 102.502 124.37 102.819 125.44C103.253 126.908 104.796 127.746 106.264 127.312C107.639 126.905 108.461 125.526 108.203 124.146C109.301 123.273 109.583 121.692 108.81 120.484Z" stroke="currentColor" stroke-width="7" stroke-linecap="round" stroke-linejoin="round"/>
  <path fill-rule="evenodd" clip-rule="evenodd" d="M103.788 122.456C102.574 123.388 102.346 125.129 103.279 126.343C103.925 127.184 104.856 127.761 105.898 127.964C107.4 128.258 108.856 127.278 109.15 125.775C109.415 124.418 108.642 123.099 107.383 122.64C106.41 121.718 104.885 121.613 103.788 122.456Z" stroke="currentColor" stroke-width="7" stroke-linecap="round" stroke-linejoin="round"/>
  <path fill-rule="evenodd" clip-rule="evenodd" d="M104.416 123.338C104.726 122.493 105.442 121.814 106.384 121.593C107.875 121.242 109.367 122.166 109.717 123.656C109.934 124.577 109.776 125.545 109.278 126.349C108.781 127.152 107.984 127.725 107.064 127.942C105.574 128.292 104.082 127.369 103.731 125.878C103.509 124.936 103.797 123.993 104.416 123.338Z" stroke="currentColor" stroke-width="7" stroke-linecap="round" stroke-linejoin="round"/>
</svg>
