<svg width="186" height="67" viewBox="0 0 186 67" fill="none" xmlns="http://www.w3.org/2000/svg">
<path d="M32.8463 17.1052C32.8463 19.3383 32.4517 21.4225 31.6626 23.3579C30.8735 25.2932 29.7392 27.0052 28.2596 28.494C26.8294 29.9331 25.0539 31.0744 22.9332 31.918C20.8618 32.712 18.5192 33.109 15.9053 33.109H6.36212V51.6437H0V1.47358H16.3492C18.9631 1.47358 21.281 1.89539 23.3031 2.739C25.3745 3.53299 27.1006 4.64953 28.4816 6.08863C29.9118 7.47811 30.9968 9.11571 31.7366 11.0014C32.4764 12.8872 32.8463 14.9217 32.8463 17.1052ZM26.4842 17.1052C26.4842 14.1278 25.6211 11.7706 23.8949 10.0338C22.1688 8.29691 19.6535 7.42849 16.3492 7.42849H6.36212V27.1541H15.9053C19.2096 27.1541 21.7989 26.2609 23.673 24.4744C25.5471 22.6879 26.4842 20.2315 26.4842 17.1052Z" fill="black"/>
<path d="M43.7858 33.6301C43.7858 35.5654 43.9831 37.3767 44.3776 39.0639C44.8215 40.7511 45.4626 42.2151 46.301 43.4557C47.1888 44.6466 48.2984 45.5895 49.6301 46.2842C51.011 46.979 52.6385 47.3263 54.5126 47.3263C56.3867 47.3263 57.9896 46.979 59.3212 46.2842C60.7021 45.5895 61.8118 44.6466 62.6502 43.4557C63.5379 42.2151 64.1791 40.7511 64.5736 39.0639C65.0175 37.3767 65.2394 35.5654 65.2394 33.6301C65.2394 31.6947 65.0175 29.9083 64.5736 28.2707C64.1791 26.5834 63.5379 25.1443 62.6502 23.9533C61.8118 22.7127 60.7021 21.7451 59.3212 21.0503C57.9896 20.3556 56.3867 20.0082 54.5126 20.0082C52.6385 20.0082 51.011 20.3556 49.6301 21.0503C48.2984 21.7451 47.1888 22.7127 46.301 23.9533C45.4626 25.1443 44.8215 26.5834 44.3776 28.2707C43.9831 29.9083 43.7858 31.6947 43.7858 33.6301ZM37.6456 33.6301C37.6456 31 37.9662 28.5436 38.6073 26.2609C39.2978 23.9782 40.3335 22.018 41.7144 20.3804C43.0953 18.6932 44.8461 17.3781 46.9668 16.4353C49.0875 15.4428 51.6028 14.9466 54.5126 14.9466C57.4224 14.9466 59.9377 15.4428 62.0584 16.4353C64.1791 17.3781 65.9299 18.6932 67.3108 20.3804C68.6917 22.018 69.7028 23.9782 70.3439 26.2609C71.0344 28.5436 71.3796 31 71.3796 33.6301C71.3796 36.2601 71.0344 38.7165 70.3439 40.9993C69.7028 43.282 68.6917 45.2669 67.3108 46.9542C65.9299 48.6414 64.1791 49.9812 62.0584 50.9737C59.9377 51.9166 57.4224 52.388 54.5126 52.388C51.6028 52.388 49.0875 51.9166 46.9668 50.9737C44.8461 49.9812 43.0953 48.6414 41.7144 46.9542C40.3335 45.2669 39.2978 43.282 38.6073 40.9993C37.9662 38.7165 37.6456 36.2601 37.6456 33.6301Z" fill="black"/>
<path d="M109.87 50.7754H102.546C98.6766 45.7495 94.7904 40.7369 90.8372 35.7765C89.107 33.6054 85.6748 33.5869 84.3699 33.6054V27.8603C84.3699 27.8603 89.5395 27.9607 90.8372 26.2238L101.732 14.8227H109.13L94.1864 30.6776L109.87 50.7754ZM86.2351 50.7754H80.0209V0.605347H86.2351V50.7754Z" fill="black"/>
<path d="M119.787 33.6301C119.787 35.5654 119.984 37.3767 120.379 39.0639C120.822 40.7511 121.464 42.2151 122.302 43.4557C123.19 44.6466 124.299 45.5895 125.631 46.2842C127.012 46.979 128.639 47.3263 130.514 47.3263C132.388 47.3263 133.991 46.979 135.322 46.2842C136.703 45.5895 137.813 44.6466 138.651 43.4557C139.539 42.2151 140.18 40.7511 140.575 39.0639C141.018 37.3767 141.24 35.5654 141.24 33.6301C141.24 31.6947 141.018 29.9083 140.575 28.2707C140.18 26.5834 139.539 25.1443 138.651 23.9533C137.813 22.7127 136.703 21.7451 135.322 21.0503C133.991 20.3556 132.388 20.0082 130.514 20.0082C128.639 20.0082 127.012 20.3556 125.631 21.0503C124.299 21.7451 123.19 22.7127 122.302 23.9533C121.464 25.1443 120.822 26.5834 120.379 28.2707C119.984 29.9083 119.787 31.6947 119.787 33.6301ZM113.647 33.6301C113.647 31 113.967 28.5436 114.608 26.2609C115.299 23.9782 116.334 22.018 117.715 20.3804C119.096 18.6932 120.847 17.3781 122.968 16.4353C125.088 15.4428 127.604 14.9466 130.514 14.9466C133.423 14.9466 135.939 15.4428 138.059 16.4353C140.18 17.3781 141.931 18.6932 143.312 20.3804C144.693 22.018 145.704 23.9782 146.345 26.2609C147.035 28.5436 147.381 31 147.381 33.6301C147.381 36.2601 147.035 38.7165 146.345 40.9993C145.704 43.282 144.693 45.2669 143.312 46.9542C141.931 48.6414 140.18 49.9812 138.059 50.9737C135.939 51.9166 133.423 52.388 130.514 52.388C127.604 52.388 125.088 51.9166 122.968 50.9737C120.847 49.9812 119.096 48.6414 117.715 46.9542C116.334 45.2669 115.299 43.282 114.608 40.9993C113.967 38.7165 113.647 36.2601 113.647 33.6301Z" fill="black"/>
<path d="M179.786 44.7955C179.342 45.5399 178.75 46.3339 178.01 47.1775C177.271 47.9715 176.383 48.7158 175.347 49.4106C174.361 50.0557 173.202 50.6015 171.87 51.0482C170.539 51.4452 169.034 51.6437 167.358 51.6437C165.631 51.6437 164.053 51.3955 162.623 50.8993C161.242 50.3534 160.058 49.5098 159.072 48.3685C158.086 47.1775 157.297 45.6888 156.705 43.9023C156.162 42.0662 155.891 39.8827 155.891 37.3519V15.6909H161.957V37.3519C161.957 40.1308 162.549 42.2895 163.733 43.8278C164.916 45.3662 166.494 46.1354 168.467 46.1354C171.13 46.1354 173.374 45.4406 175.199 44.0512C177.024 42.6617 178.553 41.0489 179.786 39.2128V15.6909H186V48.5918C186 54.6955 184.52 59.2113 181.561 62.1392C178.652 65.1166 174.583 66.6053 169.355 66.6053C167.086 66.6053 164.842 66.2828 162.623 65.6377C160.404 64.9926 158.603 64.2234 157.223 63.3302L158.776 58.3429C160.206 59.1865 161.76 59.8316 163.437 60.2783C165.163 60.7745 166.988 61.0226 168.911 61.0226C170.637 61.0226 172.166 60.8241 173.498 60.4271C174.879 60.0301 176.013 59.3354 176.901 58.3429C177.838 57.4001 178.553 56.1098 179.046 54.4722C179.539 52.8843 179.786 50.8993 179.786 48.5173V44.7955Z" fill="black"/>
</svg>
