<svg width="32" height="12" viewBox="0 0 32 12" fill="currentColor" xmlns="http://www.w3.org/2000/svg">
<path d="M6.28796 3.43199C6.28796 3.79199 6.22396 4.12799 6.09596 4.43999C5.96796 4.75199 5.78396 5.02799 5.54396 5.26799C5.31196 5.49999 5.02396 5.68399 4.67996 5.81999C4.34396 5.94799 3.96396 6.01199 3.53996 6.01199H1.99196V8.99999H0.959961V0.911987H3.61196C4.03596 0.911987 4.41196 0.979987 4.73996 1.11599C5.07596 1.24399 5.35596 1.42399 5.57996 1.65599C5.81196 1.87999 5.98796 2.14399 6.10796 2.44799C6.22796 2.75199 6.28796 3.07999 6.28796 3.43199ZM5.25596 3.43199C5.25596 2.95199 5.11596 2.57199 4.83596 2.29199C4.55596 2.01199 4.14796 1.87199 3.61196 1.87199H1.99196V5.05199H3.53996C4.07596 5.05199 4.49596 4.90799 4.79996 4.61999C5.10396 4.33199 5.25596 3.93599 5.25596 3.43199Z" />
<path d="M8.06246 6.09599C8.06246 6.40799 8.09446 6.69999 8.15846 6.97199C8.23046 7.24399 8.33446 7.47999 8.47046 7.67999C8.61446 7.87199 8.79446 8.02399 9.01046 8.13599C9.23446 8.24799 9.49846 8.30399 9.80246 8.30399C10.1065 8.30399 10.3665 8.24799 10.5825 8.13599C10.8065 8.02399 10.9865 7.87199 11.1225 7.67999C11.2665 7.47999 11.3705 7.24399 11.4345 6.97199C11.5065 6.69999 11.5425 6.40799 11.5425 6.09599C11.5425 5.78399 11.5065 5.49599 11.4345 5.23199C11.3705 4.95999 11.2665 4.72799 11.1225 4.53599C10.9865 4.33599 10.8065 4.17999 10.5825 4.06799C10.3665 3.95599 10.1065 3.89999 9.80246 3.89999C9.49846 3.89999 9.23446 3.95599 9.01046 4.06799C8.79446 4.17999 8.61446 4.33599 8.47046 4.53599C8.33446 4.72799 8.23046 4.95999 8.15846 5.23199C8.09446 5.49599 8.06246 5.78399 8.06246 6.09599ZM7.06646 6.09599C7.06646 5.67199 7.11846 5.27599 7.22246 4.90799C7.33446 4.53999 7.50246 4.22399 7.72646 3.95999C7.95046 3.68799 8.23446 3.47599 8.57846 3.32399C8.92246 3.16399 9.33046 3.08399 9.80246 3.08399C10.2745 3.08399 10.6825 3.16399 11.0265 3.32399C11.3705 3.47599 11.6545 3.68799 11.8785 3.95999C12.1025 4.22399 12.2665 4.53999 12.3705 4.90799C12.4825 5.27599 12.5385 5.67199 12.5385 6.09599C12.5385 6.51999 12.4825 6.91599 12.3705 7.28399C12.2665 7.65199 12.1025 7.97199 11.8785 8.24399C11.6545 8.51599 11.3705 8.73199 11.0265 8.89199C10.6825 9.04399 10.2745 9.11999 9.80246 9.11999C9.33046 9.11999 8.92246 9.04399 8.57846 8.89199C8.23446 8.73199 7.95046 8.51599 7.72646 8.24399C7.50246 7.97199 7.33446 7.65199 7.22246 7.28399C7.11846 6.91599 7.06646 6.51999 7.06646 6.09599Z"/>
<path d="M18.9589 8.99999H17.7709C17.3309 8.43199 16.9349 7.92399 16.5829 7.47599C16.4309 7.28399 16.2829 7.09599 16.1389 6.91199C15.9949 6.72799 15.8669 6.56399 15.7549 6.41999C15.6429 6.27599 15.5509 6.15999 15.4789 6.07199C15.4149 5.97599 15.3829 5.92799 15.3829 5.92799V5.59199L17.6389 3.20399H18.8389L16.4149 5.75999L18.9589 8.99999ZM14.9629 8.99999H13.9549V0.911987H14.9629V8.99999Z" />
<path d="M20.3906 6.09599C20.3906 6.40799 20.4226 6.69999 20.4866 6.97199C20.5586 7.24399 20.6626 7.47999 20.7986 7.67999C20.9426 7.87199 21.1226 8.02399 21.3386 8.13599C21.5626 8.24799 21.8266 8.30399 22.1306 8.30399C22.4346 8.30399 22.6946 8.24799 22.9106 8.13599C23.1346 8.02399 23.3146 7.87199 23.4506 7.67999C23.5946 7.47999 23.6986 7.24399 23.7626 6.97199C23.8346 6.69999 23.8706 6.40799 23.8706 6.09599C23.8706 5.78399 23.8346 5.49599 23.7626 5.23199C23.6986 4.95999 23.5946 4.72799 23.4506 4.53599C23.3146 4.33599 23.1346 4.17999 22.9106 4.06799C22.6946 3.95599 22.4346 3.89999 22.1306 3.89999C21.8266 3.89999 21.5626 3.95599 21.3386 4.06799C21.1226 4.17999 20.9426 4.33599 20.7986 4.53599C20.6626 4.72799 20.5586 4.95999 20.4866 5.23199C20.4226 5.49599 20.3906 5.78399 20.3906 6.09599ZM19.3946 6.09599C19.3946 5.67199 19.4466 5.27599 19.5506 4.90799C19.6626 4.53999 19.8306 4.22399 20.0546 3.95999C20.2786 3.68799 20.5626 3.47599 20.9066 3.32399C21.2506 3.16399 21.6586 3.08399 22.1306 3.08399C22.6026 3.08399 23.0106 3.16399 23.3546 3.32399C23.6986 3.47599 23.9826 3.68799 24.2066 3.95999C24.4306 4.22399 24.5946 4.53999 24.6986 4.90799C24.8106 5.27599 24.8666 5.67199 24.8666 6.09599C24.8666 6.51999 24.8106 6.91599 24.6986 7.28399C24.5946 7.65199 24.4306 7.97199 24.2066 8.24399C23.9826 8.51599 23.6986 8.73199 23.3546 8.89199C23.0106 9.04399 22.6026 9.11999 22.1306 9.11999C21.6586 9.11999 21.2506 9.04399 20.9066 8.89199C20.5626 8.73199 20.2786 8.51599 20.0546 8.24399C19.8306 7.97199 19.6626 7.65199 19.5506 7.28399C19.4466 6.91599 19.3946 6.51999 19.3946 6.09599Z"/>
<path d="M30.1231 7.89599C30.0511 8.01599 29.9551 8.14399 29.8351 8.27999C29.7151 8.40799 29.5711 8.52799 29.4031 8.63999C29.2431 8.74399 29.0551 8.83199 28.8391 8.90399C28.6231 8.96799 28.3791 8.99999 28.1071 8.99999C27.8271 8.99999 27.5711 8.95999 27.3391 8.87999C27.1151 8.79199 26.9231 8.65599 26.7631 8.47199C26.6031 8.27999 26.4751 8.03999 26.3791 7.75199C26.2911 7.45599 26.2471 7.10399 26.2471 6.69599V3.20399H27.2311V6.69599C27.2311 7.14399 27.3271 7.49199 27.5191 7.73999C27.7111 7.98799 27.9671 8.11199 28.2871 8.11199C28.7191 8.11199 29.0831 7.99999 29.3791 7.77599C29.6751 7.55199 29.9231 7.29199 30.1231 6.99599V3.20399H31.1311V8.50799C31.1311 9.49199 30.8911 10.22 30.4111 10.692C29.9391 11.172 29.2791 11.412 28.4311 11.412C28.0631 11.412 27.6991 11.36 27.3391 11.256C26.9791 11.152 26.6871 11.028 26.4631 10.884L26.7151 10.08C26.9471 10.216 27.1991 10.32 27.4711 10.392C27.7511 10.472 28.0471 10.512 28.3591 10.512C28.6391 10.512 28.8871 10.48 29.1031 10.416C29.3271 10.352 29.5111 10.24 29.6551 10.08C29.8071 9.92799 29.9231 9.71999 30.0031 9.45599C30.0831 9.19999 30.1231 8.87999 30.1231 8.49599V7.89599Z" />
</svg>
